<svg xmlns="http://www.w3.org/2000/svg" viewBox="0 0 300 330" width="300" height="330">
	<style>
		tspan { white-space:pre }
		.shp0 { fill: #000000 } 
	</style>
	<g id="Layer">
		<g id="Layer">
			<g id="Layer">
				<g id="Layer">
					<path id="Layer" class="shp0" d="M31.33,188.93h6.57c0,0 2.15,0.62 2.15,2.15c0,1.53 -2.46,4.94 -5.92,4.94c-3.46,0 -4.55,-5.12 -4.55,-5.12c0,0 -0.53,-1.97 1.75,-1.97z" />
					<path id="Layer" class="shp0" d="M52.88,192.71c0,0 -3.15,-3.21 -5.38,-3.21c-2.22,0 -1.96,1.55 -1.96,1.55c0,0 0.78,3.15 3.15,3.15c2.37,0 4.19,-1.49 4.19,-1.49z" />
					<path id="Layer" class="shp0" d="M99.65,167.57c0,15.25 -1.96,27.66 -3.21,31.42c-1.25,3.76 -4.14,8.01 -10.62,8.01c-6.48,0 -17.86,-6.27 -17.86,-18.41c0,-12.14 4.03,-24.18 4.03,-24.18c0,0 -10.13,6.37 -10.13,22.38c0,16.01 3.6,17.75 5.12,19.71c1.52,1.96 11.38,10.95 11.38,10.95l-29.79,-4.03c0,0 6.64,3.11 16.28,4.85c9.64,1.74 14.05,2.94 14.05,2.94l2.56,4.96c0,0 -16.72,-2.51 -22.44,-4.14c-5.72,-1.64 -11.27,-2.99 -17.21,-3.65c-5.94,-0.66 -13.07,-0.82 -13.07,-0.82l-0.33,-1.69l8.11,-1.14l-8.93,-0.93l-2.01,-10.35h5.66c0,0 1.25,3.32 3.54,3.32c2.28,0 3.59,-3.59 3.59,-3.59h8.55l2.4,2.67c0,0 1.42,1.74 2.51,0.65c1.09,-1.09 -0.16,-2.67 -0.16,-2.67l-1.31,-1.42c0,0 9.53,-3.1 9.53,-9.09c0,-5.99 -9.42,-10.73 -9.42,-10.73c0,0 2.94,-4.42 1.42,-5.94c-1.53,-1.52 -5.94,4.63 -5.94,4.63h-6.7c0,0 -2.61,-5.39 -4.52,-5.39c-1.91,0 -3.92,5.39 -3.92,5.39h-6.75c0,0 0.59,-10.78 1.03,-14.43c0.43,-3.65 1.17,-7.71 1.17,-7.71c0,0 6.86,-0.25 14.95,-0.98c8.09,-0.73 14.95,-1.96 14.95,-1.96c0,0 -4.33,3.25 -6.83,4.44c-2.5,1.19 -7.35,3.21 -7.35,3.21c0,0 7.62,-0.38 16.99,-5.39c9.37,-5.01 19.17,-9.26 24.51,-9.26c5.34,0 16.17,3.12 16.17,18.37zM34.89,169.28c-6.83,0 -3.52,6.41 -3.52,6.41c0,0 0.52,-3.05 3.36,-3.05c2.85,0 3.52,2.95 3.52,2.95c0,0 3.47,-6.31 -3.36,-6.31zM53.56,171.47c-5.48,-2.07 -5.74,4.96 -5.74,4.96c0,0 2.18,-3.46 4.5,-2.64c2.32,0.82 2.22,4.08 2.22,4.08c0,0 4.5,-4.33 -0.98,-6.4zM38.25,206.15c0,0 -0.68,2.95 -3.52,2.95c-2.84,0 -3.36,-3.05 -3.36,-3.05c0,0 -3.3,6.41 3.52,6.41c6.83,0 3.36,-6.31 3.36,-6.31zM53.92,205.18c0,0 0.11,3.26 -2.22,4.08c-2.33,0.82 -4.5,-2.64 -4.5,-2.64c0,0 0.26,7.03 5.74,4.96c5.48,-2.07 0.98,-6.4 0.98,-6.4zM88.27,202.84c0,0 -7.73,-3.92 -10.67,-10.89c-2.94,-6.97 -3.05,-19.93 -3.05,-19.93c0,0 -5.23,13.62 -0.22,23.31c5.01,9.69 13.94,7.51 13.94,7.51z" />
					<path id="Layer" class="shp0" d="M146.77,184.86c0,37.58 -8.38,47.16 -25.92,47.16c-17.54,0 -27.34,-2.5 -32.24,-15.9c0,0 13.07,1.52 17.1,-27.56c4.03,-29.08 -1.96,-37.79 -1.96,-37.79c0,0 6.42,-1.74 15.79,-1.74c9.36,0 27.23,-1.75 27.23,35.83zM138.49,213.4c0,0 -12.09,7.95 -19.93,7.95c-7.84,0 -12.52,-2.28 -12.85,-5.55c-0.33,-3.27 1.52,-6.97 1.52,-6.97c0,0 -2.07,3.81 -5.12,6.64c-3.05,2.83 -7.95,4.79 -7.95,4.79c0,0 3.92,8.5 23.96,8.5c20.04,0 20.37,-15.36 20.37,-15.36z" />
					<path id="Layer" class="shp0" d="M61.19,146.84l-4.71,0.87c0,0 7.07,-14.75 19.19,-26.61c12.13,-11.87 24.78,-16.05 24.78,-16.05c0,0 -10.91,7.77 -23.03,19.98c-12.12,12.21 -16.23,21.81 -16.23,21.81z" />
					<path id="Layer" class="shp0" d="M89.2,127.65l-12.21,3.66c0,0 2.44,-6.02 9.16,-7.59c6.72,-1.57 12.56,-1.57 12.56,-1.57c0,0 -1.83,5.23 -7.77,10.73c-5.93,5.5 -11.69,2.7 -11.69,2.7z" />
					<path id="Layer" class="shp0" d="M67.74,119.54c0,0 -4.28,-3.84 -1.31,-11.87c2.97,-8.03 6.89,-10.91 6.89,-10.91c0,0 4.45,8.29 3.4,16.32c-1.05,8.03 -5.23,7.5 -5.23,7.5l0.44,-13.52z" />
					<path id="Layer" class="shp0" d="M57.44,133.06c0,0 -4.62,-3.05 -5.15,-9.95c-0.52,-6.89 1.4,-13.96 1.4,-13.96c0,0 6.37,4.19 8.81,11.26c2.44,7.07 0.35,10.99 0.35,10.99l-6.28,-11.87z" />
					<path id="Layer" class="shp0" d="M49.68,149.46c0,0 -5.58,-1.31 -7.33,-8.2c-1.74,-6.89 -0.7,-14.4 -0.7,-14.4c0,0 5.85,1.92 10.3,8.9c4.45,6.98 2.01,11.43 2.01,11.43l-8.03,-10.73z" />
					<path id="Layer" class="shp0" d="M58.38,229.63l5.55,1.31c0,0 11.6,24.34 42.97,41.99c31.37,17.65 68.78,19.61 68.78,19.61l5.23,2.94c0,0 -33,1.8 -69.6,-15.03c-36.6,-16.83 -52.93,-50.82 -52.93,-50.82z" />
					<path id="Layer" class="shp0" d="M56.58,232.58l-12.74,-0.49l12.09,5.55c0,0 -5.55,3.27 -13.72,-0.82c-8.17,-4.08 -8.5,-6.7 -8.5,-6.7c0,0 8.99,-5.23 16.83,-2.29c7.84,2.95 6.04,4.75 6.04,4.75z" />
					<path id="Layer" class="shp0" d="M66.06,247.44c0,0 -1.96,-5.72 -11.27,-5.23c-9.31,0.49 -12.09,2.45 -12.09,2.45c0,0 3.76,6.86 12.25,8.5c8.49,1.64 11.27,-1.47 11.27,-1.47l-11.44,-3.43z" />
					<path id="Layer" class="shp0" d="M65.24,261.49l11.44,4.41c0,0 -1.96,4.9 -11.93,1.31c-9.97,-3.59 -10.29,-6.54 -10.29,-6.54c0,0 9.97,-5.39 17.48,-3.59c7.52,1.8 6.21,4.74 6.21,4.74z" />
					<path id="Layer" class="shp0" d="M81.58,274.56l11.6,2.94c0,0 -4.74,5.06 -13.4,1.96c-8.66,-3.1 -9.48,-5.88 -9.48,-5.88c0,0 9.48,-5.06 15.19,-4.41c5.72,0.65 8.33,3.43 8.33,3.43z" />
					<path id="Layer" class="shp0" d="M112.13,284.86c0,0 -2.78,-5.72 -12.09,-3.92c-9.31,1.8 -11.44,5.23 -11.44,5.23c0,0 8.33,6.04 15.36,6.21c7.03,0.16 8.5,-2.78 8.5,-2.78l-10.13,-3.1z" />
					<path id="Layer" class="shp0" d="M116.05,262.96l-0.33,13.56c0,0 -3.27,-2.12 -4.41,-11.27c-1.14,-9.15 3.43,-13.07 3.43,-13.07c0,0 6.54,5.72 7.52,12.42c0.98,6.7 -1.63,10.78 -1.63,10.78z" />
					<path id="Layer" class="shp0" d="M99.71,252.34l0.65,13.07c0,0 -5.23,-3.27 -5.23,-11.6c0,-8.33 3.59,-12.09 3.59,-12.09c0,0 6.37,6.04 7.84,12.58c1.47,6.54 -2.45,11.44 -2.45,11.44z" />
					<path id="Layer" class="shp0" d="M86.32,240.91l-1.8,12.91c0,0 -4.41,-4.08 -3.27,-9.97c1.14,-5.89 5.72,-9.64 5.72,-9.64c0,0 4.9,4.08 5.39,9.15c0.49,5.06 -3.43,10.46 -3.43,10.46z" />
				</g>
				<g id="Layer">
					<path id="Layer" class="shp0" d="M268.9,188.93h-6.57c0,0 -2.15,0.62 -2.15,2.15c0,1.53 2.46,4.94 5.92,4.94c3.46,0 4.55,-5.12 4.55,-5.12c0,0 0.53,-1.97 -1.75,-1.97z" />
					<path id="Layer" class="shp0" d="M247.34,192.71c0,0 3.15,-3.21 5.38,-3.21c2.23,0 1.96,1.55 1.96,1.55c0,0 -0.78,3.15 -3.15,3.15c-2.38,0.01 -4.19,-1.49 -4.19,-1.49z" />
					<path id="Layer" class="shp0" d="M216.74,149.18c5.34,0 15.14,4.25 24.51,9.26c9.37,5.01 16.99,5.39 16.99,5.39c0,0 -4.85,-2.01 -7.35,-3.21c-2.5,-1.2 -6.83,-4.44 -6.83,-4.44c0,0 6.86,1.22 14.95,1.96c8.09,0.73 14.95,0.98 14.95,0.98c0,0 0.74,4.06 1.17,7.71c0.43,3.65 1.03,14.43 1.03,14.43h-6.75c0,0 -2.01,-5.39 -3.92,-5.39c-1.91,0 -4.52,5.39 -4.52,5.39h-6.7c0,0 -4.42,-6.15 -5.94,-4.63c-1.52,1.53 1.42,5.94 1.42,5.94c0,0 -9.42,4.74 -9.42,10.73c0,5.99 9.53,9.09 9.53,9.09l-1.31,1.42c0,0 -1.25,1.58 -0.16,2.67c1.09,1.09 2.51,-0.65 2.51,-0.65l2.4,-2.67h8.55c0,0 1.3,3.59 3.59,3.59c2.29,0 3.54,-3.32 3.54,-3.32h5.66l-2.01,10.35l-8.93,0.93l8.11,1.14l-0.33,1.69c0,0 -7.13,0.17 -13.07,0.82c-5.94,0.65 -11.49,2.02 -17.21,3.65c-5.72,1.63 -22.44,4.14 -22.44,4.14l2.56,-4.96c0,0 4.41,-1.2 14.05,-2.94c9.64,-1.75 16.28,-4.85 16.28,-4.85l-29.79,4.03c0,0 9.85,-8.99 11.38,-10.95c1.53,-1.96 5.12,-3.7 5.12,-19.71c0,-16.01 -10.13,-22.38 -10.13,-22.38c0,0 4.03,12.04 4.03,24.18c0,12.15 -11.38,18.41 -17.86,18.41c-6.48,0 -9.37,-4.26 -10.62,-8.01c-1.25,-3.75 -3.21,-16.17 -3.21,-31.42c0,-15.25 10.83,-18.37 16.17,-18.37zM261.98,175.6c0,0 0.68,-2.95 3.52,-2.95c2.84,0 3.36,3.05 3.36,3.05c0,0 3.3,-6.41 -3.52,-6.41c-6.83,0 -3.36,6.31 -3.36,6.31zM245.69,177.86c0,0 -0.11,-3.25 2.22,-4.08c2.33,-0.82 4.5,2.64 4.5,2.64c0,0 -0.26,-7.03 -5.74,-4.96c-5.48,2.07 -0.98,6.4 -0.98,6.4zM265.33,212.46c6.83,0 3.52,-6.41 3.52,-6.41c0,0 -0.51,3.05 -3.36,3.05c-2.85,0 -3.52,-2.95 -3.52,-2.95c0,0 -3.47,6.31 3.36,6.31zM247.29,211.57c5.48,2.07 5.74,-4.96 5.74,-4.96c0,0 -2.17,3.47 -4.5,2.64c-2.32,-0.82 -2.22,-4.08 -2.22,-4.08c0,0 -4.5,4.34 0.98,6.4zM211.95,202.84c0,0 8.93,2.18 13.94,-7.51c5.01,-9.7 -0.22,-23.31 -0.22,-23.31c0,0 -0.11,12.96 -3.05,19.93c-2.94,6.97 -10.67,10.89 -10.67,10.89z" />
					<path id="Layer" class="shp0" d="M180.69,149.04c9.36,0 15.79,1.74 15.79,1.74c0,0 -5.99,8.71 -1.96,37.79c4.03,29.08 17.1,27.56 17.1,27.56c-4.9,13.39 -14.71,15.9 -32.24,15.9c-17.53,0 -25.92,-9.58 -25.92,-47.16c0,-37.58 17.87,-35.84 27.23,-35.83zM182.11,228.77c20.04,0 23.96,-8.5 23.96,-8.5c0,0 -4.9,-1.96 -7.95,-4.79c-3.05,-2.83 -5.12,-6.64 -5.12,-6.64c0,0 1.84,3.71 1.52,6.97c-0.32,3.26 -5.01,5.55 -12.85,5.55c-7.84,0 -19.93,-7.95 -19.93,-7.95c0,0 0.33,15.36 20.37,15.36z" />
					<path id="Layer" class="shp0" d="M239.03,146.84l4.71,0.87c0,0 -7.07,-14.75 -19.19,-26.61c-12.13,-11.87 -24.78,-16.05 -24.78,-16.05c0,0 10.91,7.77 23.03,19.98c12.12,12.21 16.23,21.81 16.23,21.81z" />
					<path id="Layer" class="shp0" d="M211.03,127.65l12.21,3.66c0,0 -2.44,-6.02 -9.16,-7.59c-6.72,-1.57 -12.56,-1.57 -12.56,-1.57c0,0 1.83,5.23 7.77,10.73c5.93,5.5 11.69,2.7 11.69,2.7z" />
					<path id="Layer" class="shp0" d="M232.49,119.54c0,0 4.28,-3.84 1.31,-11.87c-2.97,-8.03 -6.89,-10.91 -6.89,-10.91c0,0 -4.45,8.29 -3.4,16.32c1.05,8.03 5.23,7.5 5.23,7.5l-0.44,-13.52z" />
					<path id="Layer" class="shp0" d="M242.79,133.06c0,0 4.62,-3.05 5.15,-9.95c0.52,-6.89 -1.4,-13.96 -1.4,-13.96c0,0 -6.37,4.19 -8.81,11.26c-2.44,7.07 -0.35,10.99 -0.35,10.99l6.28,-11.87z" />
					<path id="Layer" class="shp0" d="M250.55,149.46c0,0 5.58,-1.31 7.33,-8.2c1.74,-6.89 0.7,-14.4 0.7,-14.4c0,0 -5.85,1.92 -10.3,8.9c-4.45,6.98 -2.01,11.43 -2.01,11.43l8.03,-10.73z" />
					<path id="Layer" class="shp0" d="M241.85,229.63l-5.55,1.31c0,0 -11.6,24.34 -42.97,41.99c-31.37,17.65 -68.78,19.61 -68.78,19.61l-5.23,2.94c0,0 33,1.8 69.6,-15.03c36.6,-16.83 52.93,-50.82 52.93,-50.82z" />
					<path id="Layer" class="shp0" d="M243.65,232.58l12.74,-0.49l-12.09,5.55c0,0 5.55,3.27 13.72,-0.82c8.17,-4.08 8.5,-6.7 8.5,-6.7c0,0 -8.99,-5.23 -16.83,-2.29c-7.84,2.95 -6.04,4.75 -6.04,4.75z" />
					<path id="Layer" class="shp0" d="M234.17,247.44c0,0 1.96,-5.72 11.27,-5.23c9.31,0.49 12.09,2.45 12.09,2.45c0,0 -3.76,6.86 -12.25,8.5c-8.5,1.63 -11.27,-1.47 -11.27,-1.47l11.44,-3.43z" />
					<path id="Layer" class="shp0" d="M234.99,261.49l-11.44,4.41c0,0 1.96,4.9 11.93,1.31c9.97,-3.59 10.29,-6.54 10.29,-6.54c0,0 -9.97,-5.39 -17.48,-3.59c-7.52,1.8 -6.21,4.74 -6.21,4.74z" />
					<path id="Layer" class="shp0" d="M218.65,274.56l-11.6,2.94c0,0 4.74,5.06 13.4,1.96c8.66,-3.1 9.48,-5.88 9.48,-5.88c0,0 -9.48,-5.06 -15.19,-4.41c-5.72,0.65 -8.33,3.43 -8.33,3.43z" />
					<path id="Layer" class="shp0" d="M188.1,284.86c0,0 2.78,-5.72 12.09,-3.92c9.31,1.8 11.44,5.23 11.44,5.23c0,0 -8.33,6.04 -15.36,6.21c-7.03,0.16 -8.5,-2.78 -8.5,-2.78l10.13,-3.1z" />
					<path id="Layer" class="shp0" d="M184.18,262.96l0.33,13.56c0,0 3.27,-2.12 4.41,-11.27c1.14,-9.15 -3.43,-13.07 -3.43,-13.07c0,0 -6.54,5.72 -7.52,12.42c-0.98,6.7 1.63,10.78 1.63,10.78z" />
					<path id="Layer" class="shp0" d="M200.52,252.34l-0.65,13.07c0,0 5.23,-3.27 5.23,-11.6c0,-8.33 -3.59,-12.09 -3.59,-12.09c0,0 -6.37,6.04 -7.84,12.58c-1.47,6.54 2.45,11.44 2.45,11.44z" />
					<path id="Layer" class="shp0" d="M213.91,240.91l1.8,12.91c0,0 4.41,-4.08 3.27,-9.97c-1.14,-5.89 -5.72,-9.64 -5.72,-9.64c0,0 -4.9,4.08 -5.39,9.15c-0.49,5.06 3.43,10.46 3.43,10.46z" />
				</g>
			</g>
			<g id="Layer">
				<path id="Layer" class="shp0" d="M177.18,253.15c-2,-5.24 -3.77,-10.66 -5.29,-16.2c-2.28,-0.43 -4.36,-1.08 -6.27,-1.95c-4.35,-1.99 -7.89,-5.21 -10.54,-9.58c-2.18,-3.61 -3.82,-8.06 -4.98,-13.54c-1.16,5.48 -2.8,9.93 -4.98,13.54c-2.64,4.37 -6.19,7.6 -10.54,9.58c-1.85,0.84 -3.86,1.48 -6.07,1.91c-1.57,5.56 -3.39,11 -5.45,16.29c2.03,2.77 4.07,6.46 4.67,10.59c0.8,5.47 -0.28,9.68 -1.26,12.16c8.26,3.17 16.41,5.45 23.64,7.08c6.86,-1.55 15.1,-3.82 23.59,-7.09c-0.98,-2.48 -2.06,-6.69 -1.26,-12.15c0.64,-4.16 2.7,-7.86 4.74,-10.64z" />
				<path id="Layer" class="shp0" d="M115.17,98.35c-0.32,-0.96 -0.48,-2.11 -0.48,-3.15c0,-3.68 1.89,-7.12 4.93,-9.18c1.74,-1.18 3.6,-1.64 5.64,-2.06c2.46,-0.51 4.94,-0.94 7.43,-1.29c0.68,-0.1 1.36,-0.19 2.04,-0.27c-2.09,-0.16 -3.73,-1.9 -3.73,-4.02c0,-2.23 1.8,-4.03 4.03,-4.03h2.9l6.11,-18.69l-14.35,4.26v-18.88l14.35,4.26l-6.15,-18.79l11.81,-5.61c-0.02,-0.01 -0.05,-0.01 -0.07,-0.01c-0.09,-0.01 -0.18,-0.02 -0.27,-0.03c-0.03,0 -0.07,-0.01 -0.1,-0.01c-0.1,-0.02 -0.2,-0.03 -0.3,-0.05c-0.02,0 -0.03,-0.01 -0.05,-0.01c-0.12,-0.02 -0.24,-0.05 -0.36,-0.08c-0.01,0 -0.01,0 -0.02,0c-0.11,-0.03 -0.22,-0.06 -0.33,-0.1c-0.02,-0.01 -0.04,-0.01 -0.06,-0.02c-0.1,-0.04 -0.19,-0.07 -0.29,-0.11c-0.01,-0.01 -0.03,-0.01 -0.04,-0.02c-0.34,-0.13 -0.66,-0.3 -0.97,-0.5l-0.01,-0.01c-1.66,-1.07 -2.76,-2.94 -2.76,-5.06c0,-3.33 2.7,-6.02 6.02,-6.02c2.23,0 4.18,1.22 5.22,3.03c0,0.01 0.01,0.01 0.01,0.02c0.12,0.22 0.23,0.45 0.33,0.68c0.04,0.11 0.08,0.22 0.12,0.33c0.01,0.02 0.01,0.04 0.02,0.06c0.03,0.1 0.06,0.21 0.09,0.31c0,0.01 0.01,0.03 0.01,0.04c0.04,0.12 0.07,0.24 0.09,0.36c0,0.01 0,0.01 0,0.02c0.03,0.11 0.04,0.23 0.06,0.34c0,0.03 0.01,0.06 0.01,0.09c0.01,0.09 0.02,0.19 0.03,0.28c0.01,0.03 0.01,0.07 0.01,0.1c0.01,0.12 0.01,0.25 0.01,0.37c0,3.14 -2.4,5.71 -5.46,5.99l11.83,5.62l-6.13,18.72l14.14,-4.19v18.88l-14.14,-4.19l6.1,18.62h3.02c0.15,0 0.29,0.01 0.42,0.02c0.01,-0.01 0.02,-0.02 0.02,-0.02c0.07,0.02 0.15,0.04 0.22,0.06c1.97,0.34 3.06,2.23 3.06,3.97c0,1.92 -1.35,3.53 -3.15,3.93c-0.18,0.04 -0.37,0.06 -0.56,0.08v0.01c0.68,0.09 1.35,0.17 2.03,0.27c2.49,0.36 4.97,0.78 7.43,1.29c2.04,0.41 3.9,0.88 5.64,2.06c3.03,2.06 4.93,5.5 4.93,9.18c0,1.04 -0.16,2.19 -0.48,3.15c0,0 -7.6,22.21 -13.39,39.12c-0.82,2.41 -1.61,4.71 -2.33,6.82c-0.14,0.03 -0.29,0.06 -0.44,0.1c-4.08,1 -7.62,2.89 -10.52,5.62c-3.78,3.55 -6.51,8.5 -8.23,14.93c-1.72,-6.43 -4.45,-11.37 -8.23,-14.93c-2.9,-2.74 -6.44,-4.63 -10.52,-5.62c-0.15,-0.03 -0.29,-0.07 -0.44,-0.1c-5.81,-16.95 -15.73,-45.94 -15.75,-45.94zM150.5,9.89c1.71,0 3.24,0.81 4.21,2.07c-0.91,-1.59 -2.63,-2.66 -4.6,-2.66c-2.93,0 -5.31,2.38 -5.31,5.31c0,1.22 0.41,2.34 1.1,3.24c-0.45,-0.78 -0.71,-1.69 -0.71,-2.65c0,-2.93 2.38,-5.31 5.31,-5.31zM118.43,96.98c0,0.92 0.13,1.93 0.42,2.77c0.01,0 1.23,3.57 3.02,8.81c1.15,-11.59 9.7,-21 20.87,-23.43c-2.85,0.17 -5.69,0.45 -8.51,0.85c-2.18,0.31 -4.36,0.69 -6.52,1.13c-1.79,0.36 -3.42,0.77 -4.95,1.81c-2.66,1.81 -4.33,4.83 -4.33,8.06z" />
			</g>
		</g>
		<path id="Layer" class="shp0" d="M176.07,44.16v6.01c0.39,0.08 0.77,0.15 1.16,0.23c8.63,1.77 17.13,4.4 25.24,7.84c7.97,3.37 15.66,7.54 22.85,12.4c7.13,4.81 13.83,10.34 19.91,16.43c6.09,6.09 11.62,12.79 16.43,19.91c4.86,7.19 9.03,14.88 12.4,22.85c3.43,8.12 6.07,16.61 7.84,25.24c1.81,8.86 2.73,17.99 2.73,27.12c0,9.13 -0.92,18.26 -2.73,27.12c-1.77,8.63 -4.4,17.13 -7.84,25.24c-3.37,7.97 -7.54,15.66 -12.4,22.85c-4.81,7.13 -10.34,13.83 -16.43,19.91c-6.09,6.09 -12.79,11.62 -19.91,16.43c-7.19,4.86 -14.88,9.03 -22.85,12.4c-8.12,3.43 -16.61,6.07 -25.24,7.84c-8.86,1.81 -17.99,2.73 -27.12,2.73c-9.13,0 -18.25,-0.9 -27.11,-2.71c-8.64,-1.77 -17.13,-4.4 -25.24,-7.84c-7.97,-3.37 -15.66,-7.54 -22.85,-12.4c-7.13,-4.81 -13.83,-10.34 -19.91,-16.43c-6.09,-6.09 -11.62,-12.79 -16.43,-19.91c-4.86,-7.19 -9.03,-14.88 -12.4,-22.85c-3.43,-8.12 -6.07,-16.61 -7.84,-25.24c-1.81,-8.86 -2.73,-17.99 -2.73,-27.12c0,-9.13 0.92,-18.26 2.73,-27.12c1.77,-8.63 4.4,-17.13 7.84,-25.24c3.37,-7.97 7.54,-15.66 12.4,-22.85c4.81,-7.13 10.34,-13.83 16.43,-19.91c6.09,-6.09 12.79,-11.62 19.91,-16.43c7.19,-4.86 14.88,-9.03 22.85,-12.4c8.12,-3.43 16.61,-6.07 25.24,-7.84c0.39,-0.08 0.77,-0.15 1.16,-0.23v-6.01c-65.16,12.16 -114.48,69.33 -114.48,138.02c0,77.56 62.88,140.44 140.44,140.44c77.56,0 140.44,-62.88 140.44,-140.44c-0.01,-68.69 -49.33,-125.86 -114.49,-138.04z" />
	</g>
</svg>